<svg width="22" height="22" viewBox="0 0 22 22" fill="none" xmlns="http://www.w3.org/2000/svg">
<path d="M11.999 6.69873C11.999 6.14645 11.5513 5.69873 10.999 5.69873C10.4467 5.69873 9.99902 6.14645 9.99902 6.69873V17.9818C9.99902 18.5341 10.4467 18.9818 10.999 18.9818C11.5513 18.9818 11.999 18.5341 11.999 17.9818V6.69873Z" fill="#3161D1"/>
<path d="M15.0714 5.70094C15.6225 5.73762 16.0395 6.21409 16.0028 6.76515L15.2517 18.0482C15.215 18.5993 14.7386 19.0163 14.1875 18.9796C13.6364 18.9429 13.2194 18.4665 13.2561 17.9154L14.0072 6.63231C14.0439 6.08125 14.5203 5.66426 15.0714 5.70094Z" fill="#3161D1"/>
<path d="M7.99096 6.6323C7.95427 6.08124 7.4778 5.66425 6.92674 5.70094C6.37567 5.73763 5.95869 6.21409 5.99537 6.76516L6.74654 18.0482C6.78323 18.5993 7.2597 19.0163 7.81076 18.9796C8.36182 18.9429 8.77881 18.4665 8.74212 17.9154L7.99096 6.6323Z" fill="#3161D1"/>
<path fill-rule="evenodd" clip-rule="evenodd" d="M8.07408 1.03051C8.20836 0.619147 8.59199 0.34082 9.02472 0.34082H12.9576C13.3903 0.34082 13.774 0.619147 13.9083 1.03051L14.5555 3.01331H20.4998C21.0521 3.01331 21.4998 3.46102 21.4998 4.01331C21.4998 4.56559 21.0521 5.01331 20.4998 5.01331H19.6307L18.4863 20.8049C18.4484 21.3277 18.0131 21.7326 17.4889 21.7326H4.49395C3.96971 21.7326 3.53446 21.3278 3.49656 20.8049L2.35208 5.01331H1.48242C0.930137 5.01331 0.482422 4.56559 0.482422 4.01331C0.482422 3.46102 0.930137 3.01331 1.48242 3.01331H7.42686L8.07408 1.03051ZM8.15234 5.01336L8.1419 5.01331H4.35732L5.4241 19.7326H16.5587L17.6254 5.01331H13.8404L13.83 5.01336H8.15234ZM12.2321 2.34082L12.4516 3.01331H9.53071L9.75023 2.34082H12.2321Z" fill="#3161D1"/>
</svg>
